<svg xmlns="http://www.w3.org/2000/svg" width="38" height="48" viewBox="0 0 38 48">
  <defs>
    <style>
      .cls-1 {
        fill: #4d75a3;
        fill-rule: evenodd;
      }
    </style>
  </defs>
  <path id="В" class="cls-1" d="M160.352,7767.52a12.845,12.845,0,0,0-7.051-3.82v-0.26a10.3,10.3,0,0,0,4.8-4.03,11.434,11.434,0,0,0,1.739-6.26,11.081,11.081,0,0,0-1.26-5.35,9.283,9.283,0,0,0-3.814-3.71,15.374,15.374,0,0,0-5.057-1.69,57.787,57.787,0,0,0-7.928-.4H125v48h19.016a30.821,30.821,0,0,0,8.152-.9,16.59,16.59,0,0,0,5.887-3.03,12.839,12.839,0,0,0,3.6-4.48A14.026,14.026,0,0,0,163,7775.3,11.061,11.061,0,0,0,160.352,7767.52Zm-13.177-9.18a3.839,3.839,0,0,1-1.978,1.87,6.749,6.749,0,0,1-2.537.68q-1.228.06-4.291,0.06h-1.5V7750.8h0.83c2.127,0,3.727.02,4.8,0.05a7.539,7.539,0,0,1,2.792.56,3.594,3.594,0,0,1,1.835,1.78,5.451,5.451,0,0,1,.59,2.38A6.6,6.6,0,0,1,147.175,7758.34Zm2.792,19.85a4.816,4.816,0,0,1-2.378,2.08,10.275,10.275,0,0,1-3.637.87q-1.786.06-6.444,0.06h-0.639v-12.02h2.2c2.127,0,3.823.01,5.088,0.04a9.381,9.381,0,0,1,2.984.47,5.422,5.422,0,0,1,2.68,1.91,5.892,5.892,0,0,1,.893,3.48A6.4,6.4,0,0,1,149.967,7778.19Z" transform="translate(-125 -7742)"/>
</svg>
