<svg xmlns="http://www.w3.org/2000/svg" width="16" height="14" viewBox="0 0 16 14">
  <defs>
    <style>
      .cls-1 {
        fill: #a5a7aa;
        fill-rule: evenodd;
      }
    </style>
  </defs>
  <path class="cls-1" d="M300.527,8117a4.507,4.507,0,0,0-3.522,1.68H297a4.507,4.507,0,0,0-3.522-1.68,4.447,4.447,0,0,0-4.475,4.37,5.623,5.623,0,0,0,.788,2.95,17.842,17.842,0,0,0,3.07,3.56A17.524,17.524,0,0,0,297,8131h0.01a17.509,17.509,0,0,0,4.138-3.12,17.775,17.775,0,0,0,3.071-3.56,5.6,5.6,0,0,0,.788-2.95,4.447,4.447,0,0,0-4.475-4.37" transform="translate(-289 -8117)"/>
</svg>
