<svg xmlns="http://www.w3.org/2000/svg" width="58.375" height="47.34" viewBox="0 0 58.375 47.34">
  <defs>
    <style>
      .cls-1 {
        fill: #55acee;
        fill-rule: evenodd;
      }
    </style>
  </defs>
  <path id="twitter" class="cls-1" d="M390.523,7741.71a12.319,12.319,0,0,1,9.47,3.75,19.578,19.578,0,0,0,6.138-2.06c0.5-.27.994-0.55,1.491-0.82a11.975,11.975,0,0,1-3.888,5.62,5.82,5.82,0,0,1-1.315.93v0.03c2.6-.03,4.744-1.2,6.781-1.84v0.03a19.187,19.187,0,0,1-4.063,4.66c-0.623.5-1.247,0.99-1.871,1.49a34.116,34.116,0,0,1-.555,7.68c-2.992,13.44-10.92,22.56-23.471,26.47-4.507,1.4-11.79,1.98-16.953.69a43.056,43.056,0,0,1-7.044-2.3,27.131,27.131,0,0,1-3.391-1.74c-0.35-.22-0.7-0.43-1.052-0.64a20.02,20.02,0,0,0,3.829.14c1.178-.19,2.333-0.14,3.42-0.38a24.194,24.194,0,0,0,7.19-2.59,13.069,13.069,0,0,0,3.245-2.12,10.345,10.345,0,0,1-3.567-.64,12.032,12.032,0,0,1-7.6-7.66c1.175,0.13,4.558.44,5.349-.23a8.808,8.808,0,0,1-3.917-1.57,11.52,11.52,0,0,1-5.641-10.25c0.409,0.19.818,0.39,1.228,0.58a12.954,12.954,0,0,0,2.513.7,3.732,3.732,0,0,0,1.637.15h-0.058c-0.6-.71-1.587-1.17-2.192-1.93a12.212,12.212,0,0,1-2.689-10.86,13.944,13.944,0,0,1,1.285-3.11l0.059,0.03a7.31,7.31,0,0,0,1.081,1.25,21.607,21.607,0,0,0,3.567,3.41,35.2,35.2,0,0,0,14.643,7.07,22.5,22.5,0,0,0,5.379.7,11.109,11.109,0,0,1,.058-5.62,11.8,11.8,0,0,1,6.781-8.03,14.956,14.956,0,0,1,2.66-.82C389.548,7741.82,390.035,7741.77,390.523,7741.71Z" transform="translate(-350.813 -7741.72)"/>
</svg>
