<svg xmlns="http://www.w3.org/2000/svg" width="56.062" height="56" viewBox="0 0 56.062 56">
  <defs>
    <style>
      .cls-1 {
        fill: #cd201f;
        fill-rule: evenodd;
      }
    </style>
  </defs>
  <path id="youtube" class="cls-1" d="M492,7738.01l-2.223,8.64h-0.227l-2.334-8.64h-3.62l4.6,14.33v6.03h2.64v-6.43l4.82-13.93H492Zm11.507,9.41a3.879,3.879,0,0,0-1.261-2.99c-0.848-.76-1.054-1.39-2.377-1.39-1.449,0-1.809.61-2.67,1.33a3.715,3.715,0,0,0-1.288,2.96v6.68a4.272,4.272,0,0,0,1.257,3.24,3.089,3.089,0,0,0,2.636,1.2c1.451,0,1.634-.39,2.466-1.16a4.2,4.2,0,0,0,1.237-3.21v-6.66Zm10.19-4.38h-2.559v10.21a4.376,4.376,0,0,1-.982.86c-0.361.22-.657,1.29-0.891,1.29a0.472,0.472,0,0,1-.49-0.26,1.268,1.268,0,0,1-.207-0.81v-11.29h-2.55v12.39a3.4,3.4,0,0,0,.558,2.13c0.375,0.48.134,0.72,0.875,0.72a3.919,3.919,0,0,0,1.852-.51c0.639-.34,1.251-1.79,1.835-2.44v2.72H513.7v-15.01Zm15.333,30.82a10.349,10.349,0,0,0-10.238-10.46H483.217a10.349,10.349,0,0,0-10.24,10.46v9.68a10.356,10.356,0,0,0,10.24,10.46H518.79a10.355,10.355,0,0,0,10.238-10.46v-9.68Zm-14.11,15.02a3.534,3.534,0,0,1-2.745-1.1,4.339,4.339,0,0,1-1-3.03v-6.02c0-1.15.369-3.27,1.1-4a3.812,3.812,0,0,1,2.837-1.1,3.6,3.6,0,0,1,2.737,1.01c0.639,0.68.954,2.83,0.954,4.09v2.54h-4.956v3.39a3,3,0,0,0,.252,1.47,0.964,0.964,0,0,0,.879.41,1.056,1.056,0,0,0,.9-0.35,2.965,2.965,0,0,0,.259-1.53v-0.6H518.8v0.69a4.328,4.328,0,0,1-.976,3.09A3.8,3.8,0,0,1,514.918,7788.88Zm1.219-9.69v-0.47a8.7,8.7,0,0,0-.274-2.38,0.981,0.981,0,0,0-.861-0.37,1.02,1.02,0,0,0-.89.37,8.7,8.7,0,0,0-.266,2.38v0.47h2.291Zm-9.928,9.72a3.115,3.115,0,0,1-1.4-.31,3.437,3.437,0,0,1-1.141-.95v1.07h-2.7v-20.2h2.538v6.12a4.642,4.642,0,0,1,1.3-.98,2.562,2.562,0,0,1,1.232-.33,2.276,2.276,0,0,1,1.934.89,4.326,4.326,0,0,1,.67,2.62v8.99a3.649,3.649,0,0,1-.629,2.29A2.195,2.195,0,0,1,506.209,7788.91Zm-0.071-11.92a1.853,1.853,0,0,0-.518-1.08,1.012,1.012,0,0,0-.833-0.36,1.171,1.171,0,0,0-.566.14,2.4,2.4,0,0,0-.708.43v9.95a2.971,2.971,0,0,0,.79.49,1.462,1.462,0,0,0,.644.15,0.853,0.853,0,0,0,.722-0.3,1.545,1.545,0,0,0,.469-0.96v-8.46Zm-10.364,10.06a6.864,6.864,0,0,1-1.54,1.44,3.134,3.134,0,0,1-1.55.44,1.623,1.623,0,0,1-1.4-.62,3.024,3.024,0,0,1-.548-1.85v-12.79h2.589v11.84a1.185,1.185,0,0,0,.165.7,0.647,0.647,0,0,0,.549.22,1.907,1.907,0,0,0,.9-0.29,4.626,4.626,0,0,0,.986-0.74v-11.73h2.511v15.21h-2.67v-1.83Zm-7.516,1.82H485.7v-17.81h-2.513v-2.54h7.662v2.54h-2.59v17.81Zm11.455-33.18a1.272,1.272,0,0,1-.973-0.36,1.422,1.422,0,0,1-.34-1.02v-7.1a1.059,1.059,0,0,1,.362-0.84,1.373,1.373,0,0,1,.951-0.33,1.13,1.13,0,0,1,.865.33,1.026,1.026,0,0,1,.391.84v7.1a1.364,1.364,0,0,1-.384,1.02A1.074,1.074,0,0,1,499.713,7755.69Z" transform="translate(-472.969 -7738)"/>
</svg>
